<svg xmlns="http://www.w3.org/2000/svg" width="569.896" height="461.762" viewBox="0 0 569.896 461.762">
  <g id="Group_11" data-name="Group 11" transform="translate(-3246.214 -1400.788)">
    <path id="Path_5" data-name="Path 5" d="M463.086,161.981C584.6,126.783,755.2,144.83,768.756,301.128,784.622,484,855.839,565.267,744.709,549.246c-185.266-26.709-207.726,8.143-277.741,48.126C379.713,647.2,211.461,426.443,296.67,359.584" transform="translate(2975.4 1254)" fill="rgba(255,168,53,0.56)"/>
    <path id="Path_6" data-name="Path 6" d="M444.627,165.723c121.509-35.2,234.748,12.295,326.995,109.987,126.027,133.463,65.758,293.3-45.372,277.276-185.264-26.709-264.456,45.637-264.456,45.637-97.314,0-218-132.6-183.581-235.3C300.534,296.723,323.12,200.921,444.627,165.723Z" transform="translate(2974 1263.926)" fill="rgba(87,53,255,0.56)"/>
    <path id="Path_7" data-name="Path 7" d="M380.423,204.113h72.291a13.416,13.416,0,0,1,13.417,13.417V344.252a13.416,13.416,0,0,1-13.417,13.417H380.423A13.418,13.418,0,0,1,367,344.252V217.53A13.418,13.418,0,0,1,380.423,204.113Z" transform="translate(3101.785 1331.28)" fill="rgba(255,255,255,0.5)"/>
    <path id="Path_8" data-name="Path 8" d="M382.473,205.87h72.293a13.418,13.418,0,0,1,13.417,13.417V346.009a13.418,13.418,0,0,1-13.417,13.417H382.473a13.416,13.416,0,0,1-13.417-13.417V219.287A13.416,13.416,0,0,1,382.473,205.87Z" transform="translate(3104.551 1333.648)" fill="rgba(255,255,255,0.5)" stroke="#4f4f4f" stroke-width="0.35"/>
    <g id="Group_9" data-name="Group 9" transform="translate(3427.488 1708.412)">
      <path id="Path_9" data-name="Path 9" d="M363.982,296.591h-3.191l-8.185-13.03v13.03h-3.191V278.227h3.191l8.211,13.079V278.227h3.165Z" transform="translate(-349.415 -277.22)" fill="#fff"/>
      <path id="Path_10" data-name="Path 10" d="M356.854,287.077a8.042,8.042,0,0,1,.8-3.614,5.792,5.792,0,0,1,2.231-2.47,6.285,6.285,0,0,1,3.306-.864,5.958,5.958,0,0,1,4.482,1.778,6.985,6.985,0,0,1,1.86,4.717l.014.719a8.091,8.091,0,0,1-.777,3.607,5.728,5.728,0,0,1-2.219,2.458,6.341,6.341,0,0,1-3.337.871,5.916,5.916,0,0,1-4.621-1.923,7.359,7.359,0,0,1-1.735-5.126Zm3.064.265a5.493,5.493,0,0,0,.871,3.3,2.826,2.826,0,0,0,2.421,1.193,2.8,2.8,0,0,0,2.416-1.212,6.069,6.069,0,0,0,.864-3.543,5.413,5.413,0,0,0-.89-3.278,3,3,0,0,0-4.8-.019A5.966,5.966,0,0,0,359.918,287.342Z" transform="translate(-339.387 -274.656)" fill="#fff"/>
      <path id="Path_11" data-name="Path 11" d="M365.856,287.077a8.041,8.041,0,0,1,.8-3.614,5.793,5.793,0,0,1,2.231-2.47,6.285,6.285,0,0,1,3.306-.864,5.959,5.959,0,0,1,4.482,1.778,6.986,6.986,0,0,1,1.86,4.717l.014.719a8.123,8.123,0,0,1-.777,3.607,5.727,5.727,0,0,1-2.219,2.458,6.341,6.341,0,0,1-3.337.871,5.916,5.916,0,0,1-4.621-1.923,7.359,7.359,0,0,1-1.735-5.126Zm3.064.265a5.494,5.494,0,0,0,.871,3.3,2.826,2.826,0,0,0,2.421,1.193,2.8,2.8,0,0,0,2.416-1.212,6.069,6.069,0,0,0,.864-3.543,5.413,5.413,0,0,0-.89-3.278,3,3,0,0,0-4.8-.019A5.966,5.966,0,0,0,368.92,287.342Z" transform="translate(-327.251 -274.656)" fill="#fff"/>
      <path id="Path_12" data-name="Path 12" d="M375.233,280.38l.087,1.576a4.908,4.908,0,0,1,3.973-1.827q4.262,0,4.339,4.879v9.019h-3.067v-8.843a2.808,2.808,0,0,0-.561-1.923,2.358,2.358,0,0,0-1.834-.625,2.956,2.956,0,0,0-2.761,1.679v9.712h-3.064V280.38Z" transform="translate(-318.503 -274.656)" fill="#fff"/>
      <path id="Path_13" data-name="Path 13" d="M384.79,294.279a6.34,6.34,0,0,1-4.722-1.836,6.652,6.652,0,0,1-1.81-4.886v-.378a8.186,8.186,0,0,1,.789-3.651,6.012,6.012,0,0,1,2.212-2.5,5.86,5.86,0,0,1,3.179-.895,5.353,5.353,0,0,1,4.306,1.778,7.512,7.512,0,0,1,1.519,5.032v1.235h-8.916a4.094,4.094,0,0,0,1.129,2.674,3.389,3.389,0,0,0,2.491.984,4.148,4.148,0,0,0,3.428-1.7l1.653,1.576a5.513,5.513,0,0,1-2.188,1.9A6.861,6.861,0,0,1,384.79,294.279Zm-.364-11.691a2.577,2.577,0,0,0-2.038.883,4.567,4.567,0,0,0-.989,2.458h5.837V285.7a3.713,3.713,0,0,0-.819-2.327A2.559,2.559,0,0,0,384.426,282.587Z" transform="translate(-310.532 -274.656)" fill="#fff"/>
      <path id="Path_14" data-name="Path 14" d="M390.38,296.858h-3.067V283.211h3.067Zm-3.254-17.19a1.629,1.629,0,0,1,.446-1.174,2,2,0,0,1,2.566,0,1.617,1.617,0,0,1,.456,1.174,1.572,1.572,0,0,1-.456,1.153,2.019,2.019,0,0,1-2.566,0A1.583,1.583,0,0,1,387.126,279.668Z" transform="translate(-298.577 -277.487)" fill="#fff"/>
      <path id="Path_15" data-name="Path 15" d="M397.941,290.317a1.386,1.386,0,0,0-.676-1.247,7.188,7.188,0,0,0-2.238-.758,11.528,11.528,0,0,1-2.611-.831,3.486,3.486,0,0,1-2.294-3.217,3.637,3.637,0,0,1,1.486-2.952,5.9,5.9,0,0,1,3.785-1.183,6.122,6.122,0,0,1,3.954,1.209,3.842,3.842,0,0,1,1.505,3.142h-3.064a1.888,1.888,0,0,0-.655-1.47,2.506,2.506,0,0,0-1.74-.587,2.707,2.707,0,0,0-1.646.467,1.469,1.469,0,0,0-.636,1.249,1.243,1.243,0,0,0,.592,1.1,8.165,8.165,0,0,0,2.4.789,11.307,11.307,0,0,1,2.829.944,4,4,0,0,1,1.526,1.32,3.345,3.345,0,0,1,.5,1.867,3.556,3.556,0,0,1-1.524,2.982,6.514,6.514,0,0,1-4,1.141,7.051,7.051,0,0,1-2.989-.606,4.928,4.928,0,0,1-2.043-1.665,3.938,3.938,0,0,1-.733-2.282h2.977a2.162,2.162,0,0,0,.819,1.672,3.2,3.2,0,0,0,2.005.585,3.091,3.091,0,0,0,1.841-.46A1.422,1.422,0,0,0,397.941,290.317Z" transform="translate(-295.153 -274.656)" fill="#fff"/>
      <path id="Path_16" data-name="Path 16" d="M398.1,287.077a8.042,8.042,0,0,1,.8-3.614,5.792,5.792,0,0,1,2.231-2.47,6.285,6.285,0,0,1,3.306-.864,5.958,5.958,0,0,1,4.482,1.778,6.985,6.985,0,0,1,1.86,4.717l.014.719a8.09,8.09,0,0,1-.777,3.607,5.727,5.727,0,0,1-2.219,2.458,6.341,6.341,0,0,1-3.337.871,5.916,5.916,0,0,1-4.621-1.923,7.359,7.359,0,0,1-1.735-5.126Zm3.064.265a5.493,5.493,0,0,0,.871,3.3,2.826,2.826,0,0,0,2.421,1.193,2.8,2.8,0,0,0,2.416-1.212,6.069,6.069,0,0,0,.864-3.543,5.413,5.413,0,0,0-.89-3.278,3,3,0,0,0-4.8-.019A5.966,5.966,0,0,0,401.168,287.342Z" transform="translate(-283.778 -274.656)" fill="#fff"/>
      <path id="Path_17" data-name="Path 17" d="M407.481,280.38l.087,1.576a4.909,4.909,0,0,1,3.973-1.827q4.262,0,4.339,4.879v9.019h-3.064v-8.843a2.82,2.82,0,0,0-.561-1.923,2.367,2.367,0,0,0-1.836-.625,2.956,2.956,0,0,0-2.761,1.679v9.712h-3.064V280.38Z" transform="translate(-275.03 -274.656)" fill="#fff"/>
      <path id="Path_18" data-name="Path 18" d="M413.876,297.17h-3.064V277.8h3.064Z" transform="translate(-266.646 -277.798)" fill="#fff"/>
      <path id="Path_19" data-name="Path 19" d="M416.8,296.858h-3.067V283.211H416.8Zm-3.254-17.19a1.629,1.629,0,0,1,.446-1.174,1.7,1.7,0,0,1,1.282-.465,1.719,1.719,0,0,1,1.287.465,1.625,1.625,0,0,1,.453,1.174,1.579,1.579,0,0,1-.453,1.153,1.725,1.725,0,0,1-1.287.46,1.707,1.707,0,0,1-1.282-.46A1.583,1.583,0,0,1,413.541,279.668Z" transform="translate(-262.967 -277.487)" fill="#fff"/>
      <path id="Path_20" data-name="Path 20" d="M419.216,280.38l.089,1.576a4.908,4.908,0,0,1,3.973-1.827q4.262,0,4.339,4.879v9.019h-3.067v-8.843a2.808,2.808,0,0,0-.561-1.923,2.358,2.358,0,0,0-1.834-.625,2.951,2.951,0,0,0-2.761,1.679v9.712h-3.067V280.38Z" transform="translate(-259.21 -274.656)" fill="#fff"/>
      <path id="Path_21" data-name="Path 21" d="M428.774,294.279a6.339,6.339,0,0,1-4.722-1.836,6.652,6.652,0,0,1-1.81-4.886v-.378a8.186,8.186,0,0,1,.789-3.651,6,6,0,0,1,2.212-2.5,5.86,5.86,0,0,1,3.179-.895,5.353,5.353,0,0,1,4.306,1.778,7.512,7.512,0,0,1,1.519,5.032v1.235h-8.916a4.094,4.094,0,0,0,1.129,2.674,3.388,3.388,0,0,0,2.489.984,4.152,4.152,0,0,0,3.431-1.7l1.653,1.576a5.513,5.513,0,0,1-2.188,1.9A6.861,6.861,0,0,1,428.774,294.279Zm-.366-11.691a2.576,2.576,0,0,0-2.036.883,4.587,4.587,0,0,0-.991,2.458h5.84V285.7a3.713,3.713,0,0,0-.819-2.327A2.56,2.56,0,0,0,428.408,282.587Z" transform="translate(-251.238 -274.656)" fill="#fff"/>
    </g>
    <path id="Path_24" data-name="Path 24" d="M388.267,210.831a2.889,2.889,0,1,1,2.888,2.907A2.9,2.9,0,0,1,388.267,210.831Z" transform="translate(3130.449 1336.415)" fill="#3c3c3c"/>
  </g>
</svg>
